#!OML:ASF E:/inclinewalkrobotboard/Project1/Captureday1/Session1/subject1.ASF
:FULLY-SPECIFIED
:DEGREES
101
root 0 0 0 1.3138915422461457 -3.853658774893547 1.8326514656500654
lowerback 12.169264285692359 0.8576628109288322 -0.059893877909680704
upperback -4.386159097912285 1.094975756560457 -0.5683983630451394
thorax -11.618940165187768 0.4975100098019069 -0.8203019415713524
lowerneck -6.010459401901738 1.5942603957503414 4.463853073414322
upperneck 18.388732080355332 3.0995365250351794 -8.19730569014151
head 6.743737434196799 1.1345128044947166 -3.143228973416166
rclavicle 1.932262357459195E-15 -4.032733212380431E-16
rhumerus 21.253152531913948 15.7716550783236 -47.63770316952111
rradius 73.64692197188882
rwrist 26.822779409671284
rhand -34.66062664539696 -57.663741726563615
rfingers 7.125020000000014
rthumb -7.80151450573544 -87.60789907731862
lclavicle -4.376251867688111E-16 -1.0202338932548836E-15
lhumerus 22.124551179686826 -12.529297325436508 43.86398763979359
lradius 71.11785879641991
lwrist -23.56072942606604
lhand -44.62162935681605 -71.13319073510164
lfingers 7.125020000000031
lthumb -17.40113504254206 -41.83515775495627
rfemur -25.231160437112017 -2.218101284363578 17.20089259892795
rtibia 54.19627646164794
rfoot -29.698852668565912 -16.76717753469324
rtoes -18.433118288772253
lfemur -26.48881740472354 2.2907899425014904 -17.62758181393232
ltibia 53.32989606992678
lfoot -32.60034953029998 -2.613479935332305
ltoes -21.018517121466875
102
root 0 0 0 1.3138393090859934 -3.853445499584141 1.832608242867383
lowerback 12.16924674350834 0.8576415672234453 -0.05987925614322753
upperback -4.386189142187853 1.0949500998536421 -0.5683938786526698
thorax -11.618966664511237 0.4974962882773668 -0.8203039278925477
lowerneck -6.010520223535932 1.5942990524982446 4.4638965567707185
upperneck 18.38883756927918 3.0995837469737912 -8.197340971404525
head 6.743778765416464 1.134531587969395 -3.143243153999115
rclavicle 1.9321080218651525E-15 -4.0314456681790737E-16
rhumerus 21.25317749700224 15.771622508250308 -47.63761494130752
rradius 73.64695859215819
rwrist 26.82283269970361
rhand -34.66074555583862 -57.66392923359111
rfingers 7.125020000000014
rthumb -7.801629152458027 -87.60808866754019
lclavicle -4.372667444365681E-16 -1.0195753801620708E-15
lhumerus 22.124606510981323 -12.529347041296015 43.8639870751959
lradius 71.11791561216867
lwrist -23.560705452391957
lhand -44.62165404859615 -71.13327811308179
lfingers 7.125020000000031
lthumb -17.401163145255303 -41.83526628136488
rfemur -25.23111774552636 -2.218028442882437 17.200907569634616
rtibia 54.19605683803581
rfoot -29.69890287338128 -16.767222930111984
rtoes -18.43311968108616
lfemur -26.48841585721713 2.2908347971110383 -17.627328632204
ltibia 53.33003964586915
lfoot -32.599685973917076 -2.614064588329224
ltoes -21.019928411959043
103
root 0 0 0 1.313648086099323 -3.8557736488476975 1.832933494281205
lowerback 12.169090374685211 0.8579247614283054 -0.06019978887461874
upperback -4.385620447811372 1.0952661550316243 -0.5682629745334317
thorax -11.618205113728191 0.49768679255034015 -0.820032242382565
lowerneck -6.009074683899214 1.5936175972046411 4.463357757105738
upperneck 18.387260180020164 3.098789475512665 -8.197015516030767
head 6.743084851149896 1.1341821662634484 -3.1431485984598337
rclavicle 1.9194656720978292E-15 -3.9720921772173637E-16
rhumerus 21.25252933911603 15.771355126701957 -47.63866960192993
rradius 73.64592764403125
rwrist 26.822173866897494
rhand -34.65998513164038 -57.662193933691874
rfingers 7.125020000000014
rthumb -7.800617844619163 -87.60618673731426
lclavicle -4.4291911347339595E-16 -1.0185936138066471E-15
lhumerus 22.126266064444337 -12.527881280090751 43.86368591545208
lradius 71.11879254416175
lwrist -23.56090078208497
lhand -44.6218115704405 -71.13557387374694
lfingers 7.125020000000031
lthumb -17.401313953648184 -41.838563152213695
rfemur -25.23205015941369 -2.2171584451315356 17.201727819102896
rtibia 54.19392718110061
rfoot -29.696174500934195 -16.768494273897034
rtoes -18.4306070066985
lfemur -26.49509277580502 2.2917811461565165 -17.631346974493116
ltibia 53.32984944024605
lfoot -32.599991458394186 -2.6124348431639173
ltoes -21.0069008122639
104
root 0 0 0 1.3139444224259709 -3.853943884635572 1.832650981415822
lowerback 12.169265262072567 0.8577044580936032 -0.05984864385845989
upperback -4.386091003673653 1.0950391747367938 -0.5683881052368008
thorax -11.618859469793971 0.4975417451419165 -0.8203297511386103
lowerneck -6.010281852524287 1.5941624386827906 4.4638036964611985
upperneck 18.388506767555995 3.099415102879971 -8.197260121949153
head 6.74364125727424 1.1344633703205935 -3.1432217498080997
rclavicle 1.9323087812426443E-15 -4.0346980517370566E-16
rhumerus 21.25329087409402 15.771827167468983 -47.63767938988318
rradius 73.64701252799252
rwrist 26.82278317525728
rhand -34.66051931481115 -57.66368602655222
rfingers 7.125020000000014
rthumb -7.801416751577326 -87.60788251625098
lclavicle -4.360168480546317E-16 -1.0194948300181409E-15
lhumerus 22.124257927965076 -12.529093311418743 43.86414412969233
lradius 71.11751863889194
lwrist -23.560653596126407
lhand -44.6216175562019 -71.13285282663853
lfingers 7.125020000000031
lthumb -17.401129472614564 -41.83484834953005
rfemur -25.231271271199645 -2.218149687123643 17.200789740014457
rtibia 54.19636861954504
rfoot -29.699051546119616 -16.767250422040814
rtoes -18.432702869925002
lfemur -26.488855374486164 2.2908811485872245 -17.62769445721716
ltibia 53.329963063352714
lfoot -32.600342693621805 -2.6129263412474137
ltoes -21.017222278129275
